<svg width="1070" height="730" viewBox="0 0 1070 730" fill="none" xmlns="http://www.w3.org/2000/svg">
<path fill-rule="evenodd" clip-rule="evenodd" d="M126.364 559.951L176.625 544.241C213.764 532.633 327.42 540.429 429.853 587.096C519.211 627.806 654.93 698.351 748.77 715.818C842.611 733.285 904.027 687.546 965.829 640.988C1027.93 595.034 1089.05 548.69 1151.15 502.736C1213.25 456.782 1274.37 410.439 1353.7 398.913C1433.33 387.992 1529.21 411.11 1578.13 423.058L1626.07 434.617L1504.26 191.2L1467.81 202.594C1430.67 214.202 1357.77 236.989 1284.18 259.99C1210.59 282.992 1137.69 305.779 1064.1 328.781C990.512 351.782 917.61 374.569 844.021 397.571C770.431 420.572 784.191 416.271 710.602 439.273C637.012 462.275 618.919 405.994 456.714 456.694C417.419 468.977 213.764 532.633 176.625 544.241L126.364 559.951Z" fill="#7177F1" fill-opacity="0.3"/>
<path fill-rule="evenodd" clip-rule="evenodd" d="M152.73 541.895L189.181 530.501C226.32 518.893 299.222 496.106 399.141 525.721C499.366 555.948 625.234 639.007 719.336 656.997C813.439 674.988 874.706 628.952 936.355 582.089C998.311 535.838 1059.27 489.19 1121.23 442.939C1183.18 396.688 1244.14 350.041 1323.55 338.664C1403.26 327.898 1499.43 351.61 1548.51 363.863L1596.6 375.719L1473.21 129.154L1436.76 140.547C1399.63 152.156 1326.72 174.943 1253.13 197.944C1179.54 220.946 1106.64 243.733 1033.05 266.734C959.464 289.736 886.562 312.523 812.973 335.524C739.383 358.526 666.481 381.313 592.892 404.315C519.302 427.316 446.401 450.103 372.811 473.105C299.222 496.106 226.32 518.893 189.181 530.501L152.73 541.895Z" fill="#9297EF"/>
<path fill-rule="evenodd" clip-rule="evenodd" d="M576.261 580.272L610.842 559.867C636.395 544.789 674.9 474.06 673.281 387.815C671.868 312.579 661.738 193.364 683.423 128.706C705.108 64.0469 771.686 54.1779 839.169 44.5487C906.22 34.4004 973.23 25.0505 1040.28 14.9022C1107.33 4.75387 1174.34 -4.59608 1216.77 -44.3357C1258.76 -84.5945 1276.08 -153.646 1284.78 -188.97L1293.44 -223.496L1467.56 -14.2803L1442.48 0.517955C1416.93 15.5955 1366.77 45.1921 1316.14 75.068C1265.51 104.944 1215.35 134.54 1164.71 164.416C1114.08 194.292 1063.92 223.889 1013.29 253.765C962.656 283.641 972.123 278.054 921.49 307.93C870.857 337.806 915.16 380.305 803.556 446.157C776.519 462.109 636.395 544.789 610.842 559.867L576.261 580.272Z" fill="#7177F1" fill-opacity="0.3"/>
<path fill-rule="evenodd" clip-rule="evenodd" d="M603.395 575.138L628.474 560.34C654.027 545.262 704.187 515.666 717.182 440.566C729.74 364.94 704.187 244.37 725.497 179.262C746.808 114.153 813.598 104.539 881.299 95.1719C948.562 85.2787 1015.79 76.1905 1083.05 66.2974C1150.32 56.4042 1217.54 47.316 1259.86 7.44884C1301.74 -32.9442 1318.64 -102.506 1327.13 -138.092L1335.57 -172.873L1511.95 39.0482L1486.87 53.8465C1461.31 68.924 1411.15 98.5207 1360.52 128.397C1309.89 158.272 1259.73 187.869 1209.1 217.745C1158.46 247.621 1108.3 277.217 1057.67 307.093C1007.04 336.969 956.878 366.566 906.245 396.442C855.612 426.317 805.453 455.914 754.82 485.79C704.187 515.666 654.027 545.262 628.474 560.34L603.395 575.138Z" fill="#9297EF"/>
</svg>
